# xmcd
#
# Track frame offsets:
#	150
#	11100
#	24462
#	33117
#	44817
#	55690
#	70220
#	81655
#	100582
#	112655
#	125872
#	140132
#	154220
#	165482
#	174947
#	187490
#	197212
#	211670
#	221952
#	231752
#	241775
#	253337
#	264297
#	276960
#	288430
#	296872
#	306350
#	318235
#
# Disc length: 4393 seconds
#
# Revision: 2
# Processed by: cddbd v1.5.2PL0 Copyright (c) Steve Scherf et al.
# Submitted via: audiograbber 1.83.01
#
DISCID=af11271c
DTITLE=Various Artist - Country Evergreens  CD 4 of 4
DYEAR=1900
DGENRE=Country
TTITLE0=George McCormick - Hey good lookin'  1963
TTITLE1=Glenn Campbell - Gentle on my mind 
TTITLE2=Don Reno and Bobby Thompson - Foggy mountain breakdown  1981
TTITLE3=Rusty Draper - Gambler's guitar  1953
TTITLE4=Anne Murray - Daydream believer
TTITLE5=Bobby Sykes - Born to lose  1963
TTITLE6=Willie Nelson - On the road again  1981
TTITLE7=Alabama - Mountain music  1980
TTITLE8=Frankie Laine - Do not forsake me  1952
TTITLE9=Charlie Rich - Behind closed doors  1972
TTITLE10=The Cattlemen - Red river valley  1963
TTITLE11=Ronnie Rogers - Dan D. Derby  1981
TTITLE12=Bobby Bare - Footprints in the sands of time  1971
TTITLE13=Jerry Reed - King of the road  1967
TTITLE14=Charlie Rich - Big boss man  1960
TTITLE15=Gene Martin - Waiting for a train  1963
TTITLE16=Tennesee Ernie Ford - The cry of the wild
TTITLE17=Crystal Gayle - Wrong road again
TTITLE18=Jerry Reed - Yakety Axe  1967
TTITLE19=Bobby Bare - Help me make it through the night  1970
TTITLE20=Jonny Cash - I walk the line  1956
TTITLE21=Don Reno and Bobby Thompson - Dueling banjos  1982
TTITLE22=Dave Dudley - Me and ole C.B.  1978
TTITLE23=Billie Jo Spears - Stand by your man 
TTITLE24=Bobby Sykes and Lou Darnell - Bonaparte's Retreat  1963
TTITLE25=Frank Saunders - The Old Chisholm Trail1963
TTITLE26=The Cattlemen - Cowboy Jack  1963
TTITLE27=Jim Reeves - Adiosa Amigo  1961
EXTD=
EXTT0=
EXTT1=
EXTT2=
EXTT3=
EXTT4=
EXTT5=
EXTT6=
EXTT7=
EXTT8=
EXTT9=
EXTT10=
EXTT11=
EXTT12=
EXTT13=
EXTT14=
EXTT15=
EXTT16=
EXTT17=
EXTT18=
EXTT19=
EXTT20=
EXTT21=
EXTT22=
EXTT23=
EXTT24=
EXTT25=
EXTT26=
EXTT27=
PLAYORDER=
